<svg id="$Other" viewBox="0 0 416 480" xmlns="http://www.w3.org/2000/svg">
	<path d="M 56,480 H 24 A 24,24 0 0 1 0,456 V 312 a 24,24 0 0 1 24,-24 h 32 a 24,24 0 0 1 24,24 v 144 a 24,24 0 0 1 -24,24 z"/>
	<path d="M 280,480 H 248 A 24,24 0 0 1 224,456 V 216 a 24,24 0 0 1 24,-24 h 32 a 24,24 0 0 1 24,24 v 240 a 24,24 0 0 1 -24,24 z"/>
	<path d="M 392,480 H 360 A 24,24 0 0 1 336,456 V 104 a 24,24 0 0 1 24,-24 h 32 a 24,24 0 0 1 24,24 v 352 a 24,24 0 0 1 -24,24 z"/>
	<path d="M 168,480 H 136 A 24,24 0 0 1 112,456 V 24 A 24,24 0 0 1 136,0 h 32 a 24,24 0 0 1 24,24 v 432 a 24,24 0 0 1 -24,24 z"/>
</svg>