<svg id="$Resume" viewBox="0 0 56 60" xmlns="http://www.w3.org/2000/svg">
	<path d="m17 12h22a2 2 0 002-2v-4a6 6 0 00-6-6h-14a6 6 0 00-6 6v4a2 2 0 002 2zm33-7h-2a.94.94 0 00-1 1v4a8 8 0 01-8 8h-22a8 8 0 01-8-8v-4a.94.94 0 00-1-1h-2a6 6 0 00-6 6v43a6 6 0 006 6h44a6 6 0 006-6v-43a6 6 0 00-6-6zm-33 43a2 2 0 01-2 2h-2a2 2 0 01-2-2v-2a2 2 0 012-2h2a2 2 0 012 2zm0-10a2 2 0 01-2 2h-2a2 2 0 01-2-2v-2a2 2 0 012-2h2a2 2 0 012 2zm0-10a2 2 0 01-2 2h-2a2 2 0 01-2-2v-2a2 2 0 012-2h2a2 2 0 012 2zm28 20a2 2 0 01-2 2h-20a2 2 0 01-2-2v-2a2 2 0 012-2h20a2 2 0 012 2zm0-10a2 2 0 01-2 2h-20a2 2 0 01-2-2v-2a2 2 0 012-2h20a2 2 0 012 2zm0-10a2 2 0 01-2 2h-20a2 2 0 01-2-2v-2a2 2 0 012-2h20a2 2 0 012 2z"/>
</svg>