<svg id="$Color Picker" viewBox="0 0 511.99999 512.00096" xmlns="http://www.w3.org/2000/svg">
	<path d="m319.262445 228.539925-35.661-35.662c-11.635-1.228-23.7 2.588-32.617 11.504-22.81 22.81-10.871 40.363-39.5 79.443 0 0 75.415-1.809 96.275-22.667 8.918-8.917 12.73-20.983 11.503-32.618z"/>
	<path d="m509.906445 2.093925c-18.307-18.308-139.925 87.966-194.847 142.888 0 0-6.567 8.321-13.69 18.443l47.201 47.202c10.121-7.125 18.441-13.694 18.441-13.694 54.922-54.922 161.202-176.532 142.895-194.839z"/>
	<path d="m462.547445 221.285925c-14.632-12.683-28.929-22.507-42.49-31.338-11.018 11.822-21.114 22.276-29.434 30.595l-1.384 1.383-1.535 1.212c-.372.294-9.223 7.271-20.019 14.867-6.448 4.537-11.895 8.106-16.541 10.938-2.992 13.393-9.739 25.79-19.773 35.826-14.267 14.267-38.054 23.355-74.859 28.602-23.141 3.299-43.378 3.815-44.227 3.837l-25.501.611c1.372 1.048 2.697 2.19 3.951 3.445 15.293 15.293 15.293 40.087 0 55.381-15.293 15.293-40.087 15.293-55.381 0s-15.293-40.087 0-55.381c4.067-4.067 8.81-7.041 13.863-8.945l35.33-48.226c11.021-15.045 13.759-24.687 16.929-35.852 3.811-13.422 8.554-30.127 25.896-47.469 9.919-9.919 22.183-16.654 35.543-19.689 2.842-4.679 6.432-10.17 11.005-16.674 7.619-10.839 14.632-19.74 14.927-20.113l1.214-1.538 1.386-1.386c8.125-8.125 18.616-18.254 30.606-29.422-8.831-13.564-18.656-27.862-31.34-42.495-54.124-62.442-149.317-66.318-208.265-8.406-.787.774-1.571 1.552-2.351 2.336-107.028 107.664-106.76 280.586.587 387.932s280.269 107.615 387.932.587c.785-.78 1.564-1.564 2.336-2.351 57.911-58.949 54.037-154.142-8.405-208.267zm-292.631-151.38c18.313-11.507 42.486-5.989 53.993 12.324s5.989 42.486-12.324 53.993-42.486 5.989-53.993-12.324-5.988-42.488 12.324-53.993zm-56.611 188.346c-21.492-2.422-36.951-21.807-34.529-43.299s21.807-36.951 43.298-34.529c21.492 2.422 36.951 21.807 34.529 43.299-2.42 21.49-21.806 36.951-43.298 34.529zm183.741 174.971c-21.492 2.422-40.877-13.038-43.299-34.529-2.422-21.492 13.038-40.877 34.529-43.299 21.492-2.422 40.877 13.038 43.298 34.529 2.423 21.492-13.036 40.878-34.528 43.299zm145.049-91.139c-11.507 18.313-35.68 23.83-53.993 12.324-18.313-11.507-23.83-35.68-12.324-53.993 11.507-18.313 35.68-23.83 53.993-12.324 18.313 11.507 23.831 35.68 12.324 53.993z"/>
</svg>