<svg viewBox="0 0 64 64" xmlns="http://www.w3.org/2000/svg">
	<path fill="#202020" d="m6 0h52c3.324 0 6 2.676 6 6v52c0 3.324-2.676 6-6 6h-52c-3.324 0-6-2.676-6-6v-52c0-3.324 2.676-6 6-6z"/>
	<g fill="#00e000" stroke-width=".875">
		<path d="m14.1154785 12.30396374q0 3.42651339-1.0766595 5.03295914-1.06811556 1.5979005-3.32397494 1.5979005-2.29003906 0-3.34960938-1.62353538-1.05102541-1.62353538-1.05102541-4.99023438 0-3.39233405 1.0681153-5.00732426 1.06811521-1.62353511 3.33251949-1.62353511 2.29003906 0 3.34106456 1.6491699 1.05956988 1.640625 1.05956988 4.96459959zm-2.24731413 3.87939414q.29907229-.69213813.40161135-1.6235345.11108396-.93994163.11108396-2.25585964 0-1.29882813-.11108396-2.25585938-.10253906-.95703125-.41015625-1.62353511-.29907229-.65795905-.8203125-.99121094-.51269531-.33325197-1.32446291-.33325197-.8032227 0-1.33300781.33325197-.52124021.33325189-.8288574 1.00830074-.29052739.63232426-.40161135 1.6491699-.10253906 1.01684573-.10253906 2.23022468 0 1.33300738.09399416 2.2302245.09399416.89721713.40161135 1.60644575.2819824.66650325.79467771 1.01684538.52124021.35034213 1.3757324.35034213.80322261 0 1.33300781-.3332525.5297852-.33325163.8203125-1.008301z"/>
		<path d="m24.548828 18.66993025h-6.88720638v-1.29882813h2.64892513v-8.52783173h-2.64892513v-1.16210938q.53832975 0 1.15356413-.085449.61523438-.09399408.93139638-.26489251.39306663-.21362311.61523438-.5383301.230713-.33325197.26489313-.88867188h1.32446213v11.46728459h2.59765625z"/>
		<path d="m36.40063475 12.30396374q0 3.42651339-1.0766595 5.03295914-1.068116 1.5979005-3.32397538 1.5979005-2.29003863 0-3.34960938-1.62353538-1.05102463-1.62353538-1.05102463-4.99023438 0-3.39233405 1.06811513-5.00732426 1.06811513-1.62353511 3.33251888-1.62353511 2.2900395 0 3.341065 1.6491699 1.05956988 1.640625 1.05956988 4.96459959zm-2.24731413 3.87939414q.29907238-.69213813.401611-1.6235345.11108388-.93994163.11108388-2.25585964 0-1.29882813-.11108388-2.25585938-.10253863-.95703125-.41015625-1.62353511-.29907238-.65795905-.8203125-.99121094-.51269488-.33325197-1.324463-.33325197-.803222 0-1.33300738.33325197-.52124013.33325189-.82885775 1.00830074-.29052713.63232426-.401611 1.6491699-.1025395 1.01684573-.1025395 2.23022468 0 1.33300738.09399425 2.2302245.09399425.89721713.40161188 1.60644575.28198188.66650325.79467763 1.01684538.52124013.35034213 1.37573188.35034213.80322288 0 1.33300825-.3332525.52978538-.33325163.8203125-1.008301z"/>
		<path d="m46.83398425 18.66993025h-6.88720638v-1.29882813h2.64892513v-8.52783173h-2.64892513v-1.16210938q.53832975 0 1.15356413-.085449.61523438-.09399434.93139638-.26489278.39306663-.21362311.61523438-.5383301.230713-.33325197.26489313-.88867188h1.32446213v11.46728485h2.59765625z"/>
		<path d="m58.685791 12.30396374q0 3.42651339-1.0766595 5.03295914-1.068116 1.5979005-3.32397538 1.5979005-2.29003863 0-3.34960938-1.62353538-1.05102463-1.62353538-1.05102463-4.99023438 0-3.39233405 1.06811513-5.00732426 1.06811513-1.62353511 3.33251888-1.62353511 2.2900395 0 3.341065 1.6491699 1.05956988 1.640625 1.05956988 4.96459959zm-2.24731413 3.87939414q.29907238-.69213813.401611-1.6235345.11108388-.93994163.11108388-2.25585964 0-1.29882813-.11108388-2.25585938-.10253863-.95703125-.41015625-1.62353511-.29907238-.65795905-.8203125-.99121094-.51269488-.33325197-1.324463-.33325197-.803222 0-1.33300738.33325197-.52124013.33325189-.82885775 1.00830074-.29052713.63232426-.401611 1.6491699-.1025395 1.01684573-.1025395 2.23022468 0 1.33300738.09399425 2.2302245.09399425.89721713.40161188 1.60644575.28198188.66650325.79467763 1.01684538.52124013.35034213 1.37573188.35034213.80322288 0 1.33300825-.3332525.52978538-.33325163.8203125-1.008301z"/>
		<path d="m13.40625075 38.35743025h-6.88720743v-1.29882813h2.64892574v-8.52783138h-2.64892574v-1.16210938q.53833001 0 1.15356439-.0854525.61523438-.09399425.93139646-.26489225.39306645-.21362338.61523438-.53832975.23071291-.3332525.2648926-.88867188h1.32446291v11.4672845h2.59765669z"/>
		<path d="m24.548828 38.35743025h-6.88720638v-1.29882813h2.64892513v-8.52783138h-2.64892513v-1.16210938q.53832975 0 1.15356413-.0854525.61523438-.09399425.93139638-.26489225.39306663-.21362338.61523438-.53832975.230713-.3332525.26489313-.88867188h1.32446213v11.4672845h2.59765625z"/>
		<path d="m35.69140613 38.35743025h-6.88720638v-1.29882813h2.64892513v-8.52783138h-2.64892513v-1.16210938q.53832975 0 1.15356413-.0854525.61523438-.09399425.93139638-.26489225.39306663-.21362338.61523438-.53832975.230713-.3332525.26489313-.88867188h1.32446213v11.4672845h2.59765625z"/>
		<path d="m47.54321288 31.991464q0 3.42651313-1.0766595 5.03295888-1.068116 1.5979005-3.32397538 1.5979005-2.29003863 0-3.34960938-1.62353538-1.05102463-1.62353538-1.05102463-4.99023438 0-3.39233388 1.06811513-5.007324 1.06811513-1.62353538 3.33251888-1.62353538 2.2900395 0 3.341065 1.64917025 1.05956988 1.640625 1.05956988 4.9645995zm-2.24731413 3.87939388q.29907238-.69213813.401611-1.6235345.11108388-.93994163.11108388-2.25585938 0-1.29882813-.11108388-2.25585938-.10253863-.95703125-.41015625-1.62353538-.29907238-.65795888-.8203125-.99121138-.51269488-.33325163-1.324463-.33325163-.803222 0-1.33300738.33325163-.52124013.3332525-.82885775 1.008301-.29052713.632324-.401611 1.64917025-.1025395 1.01684538-.1025395 2.2302245 0 1.33300738.09399425 2.2302245.09399425.89721713.40161188 1.60644575.28198188.66650325.79467763 1.01684538.52124013.35034213 1.37573188.35034213.80322288 0 1.33300825-.3332525.52978538-.33325163.8203125-1.008301z"/>
		<path d="m57.97656238 38.35743025h-6.88720638v-1.29882813h2.64892513v-8.52783138h-2.64892513v-1.16210938q.53832975 0 1.15356413-.0854525.61523438-.09399425.93139638-.26489225.39306663-.21362338.61523438-.53832975.230713-.3332525.26489313-.88867188h1.32446213v11.4672845h2.59765625z"/>
		<path d="m13.40625075 58.04493025h-6.88720743v-1.29882813h2.64892574v-8.52783138h-2.64892574v-1.16210938q.53833001 0 1.15356439-.0854525.61523438-.09399425.93139646-.26489225.39306645-.21362338.61523438-.53832975.23071291-.3332525.2648926-.88867188h1.32446291v11.4672845h2.59765669z"/>
		<path d="m25.25805663 51.678964q0 3.42651313-1.0766595 5.03295888-1.068116 1.5979005-3.32397538 1.5979005-2.29003863 0-3.3496085-1.62353538-1.0510255-1.62353538-1.0510255-4.99023438 0-3.39233388 1.06811513-5.007324 1.06811513-1.62353538 3.33251888-1.62353538 2.2900395 0 3.341065 1.64917025 1.05956988 1.640625 1.05956988 4.9645995zm-2.24731413 3.87939388q.29907238-.69213813.401611-1.6235345.11108388-.93994163.11108388-2.25585938 0-1.29882813-.11108388-2.25585938-.10253863-.95703125-.41015625-1.62353538-.29907238-.65795888-.8203125-.99121138-.51269488-.33325163-1.324463-.33325163-.803222 0-1.33300738.33325163-.52124013.3332525-.82885775 1.008301-.29052713.632324-.401611 1.64917025-.1025395 1.01684538-.1025395 2.2302245 0 1.33300738.09399425 2.2302245.09399425.89721713.40161188 1.60644575.28198188.66650325.79467763 1.01684538.52124013.35034213 1.37573188.35034213.80322288 0 1.33300825-.3332525.52978538-.33325163.8203125-1.008301z"/>
		<path d="m35.69140613 58.04493025h-6.88720638v-1.29882813h2.64892513v-8.52783138h-2.64892513v-1.16210938q.53832975 0 1.15356413-.0854525.61523438-.09399425.93139638-.26489225.39306663-.21362338.61523438-.53832975.230713-.3332525.26489313-.88867188h1.32446213v11.4672845h2.59765625z"/>
		<path d="m47.54321288 51.678964q0 3.42651313-1.0766595 5.03295888-1.068116 1.5979005-3.32397538 1.5979005-2.29003863 0-3.34960938-1.62353538-1.05102463-1.62353538-1.05102463-4.99023438 0-3.39233388 1.06811513-5.007324 1.06811513-1.62353538 3.33251888-1.62353538 2.2900395 0 3.341065 1.64917025 1.05956988 1.640625 1.05956988 4.9645995zm-2.24731413 3.87939388q.29907238-.69213813.401611-1.6235345.11108388-.93994163.11108388-2.25585938 0-1.29882813-.11108388-2.25585938-.10253863-.95703125-.41015625-1.62353538-.29907238-.65795888-.8203125-.99121138-.51269488-.33325163-1.324463-.33325163-.803222 0-1.33300738.33325163-.52124013.3332525-.82885775 1.008301-.29052713.632324-.401611 1.64917025-.1025395 1.01684538-.1025395 2.2302245 0 1.33300738.09399425 2.2302245.09399425.89721713.40161188 1.60644575.28198188.66650325.79467763 1.01684538.52124013.35034213 1.37573188.35034213.80322288 0 1.33300825-.3332525.52978538-.33325163.8203125-1.008301z"/>
		<path d="m58.685791 51.678964q0 3.42651313-1.0766595 5.03295888-1.068116 1.5979005-3.32397538 1.5979005-2.29003863 0-3.34960938-1.62353538-1.05102463-1.62353538-1.05102463-4.99023438 0-3.39233388 1.06811513-5.007324 1.06811513-1.62353538 3.33251888-1.62353538 2.2900395 0 3.341065 1.64917025 1.05956988 1.640625 1.05956988 4.9645995zm-2.24731413 3.87939388q.29907238-.69213813.401611-1.6235345.11108388-.93994163.11108388-2.25585938 0-1.29882813-.11108388-2.25585938-.10253863-.95703125-.41015625-1.62353538-.29907238-.65795888-.8203125-.99121138-.51269488-.33325163-1.324463-.33325163-.803222 0-1.33300738.33325163-.52124013.3332525-.82885775 1.008301-.29052713.632324-.401611 1.64917025-.1025395 1.01684538-.1025395 2.2302245 0 1.33300738.09399425 2.2302245.09399425.89721713.40161188 1.60644575.28198188.66650325.79467763 1.01684538.52124013.35034213 1.37573188.35034213.80322288 0 1.33300825-.3332525.52978538-.33325163.8203125-1.008301z"/>
	</g>
</svg>