<svg id="$Bladder Diary" viewBox="0 0 210.039 210.039" xmlns="http://www.w3.org/2000/svg">
	<path d="m 29.588763,79.757 c -0.0013,0 0,0 0,0 -1.237274,0 -2.042546,-0.059 -2.192637,-0.07 L 26.814033,79.616 C 25.019464,79.315 9.1646098,76.454 4.9946848,68.693 0.16957779,59.714 -3.6114152,44.834 5.7882108,24.945 13.887916,7.806 35.818201,0 52.766763,0 c 6.628812,0 12.607663,1.126 17.291814,3.257 4.866871,2.214 11.439564,5.825 12.329664,11.596 1.00627,6.514 -5.48289,12.835 -15.53509,20.324 C 54.849768,44.12 54.428208,49.695 53.793909,58.134 53.628156,60.329 53.457183,62.6 53.078692,65.135 51.472063,75.915 39.890241,79.757 29.588763,79.757 Z M 204.24927,24.944 C 196.15217,7.806 174.22319,0 157.27332,0 c -6.62881,0 -12.60897,1.126 -17.29181,3.257 -4.86687,2.214 -11.43956,5.824 -12.32967,11.596 -1.00626,6.514 5.48159,12.836 15.53379,20.324 12.00599,8.943 12.42625,14.519 13.05924,22.958 0.16575,2.195 0.33673,4.465 0.71391,7 1.60794,10.782 13.18976,14.623 23.49254,14.623 1.23728,0 2.04255,-0.059 2.19264,-0.07 l 0.58209,-0.071 c 1.79457,-0.301 17.64682,-3.162 21.81805,-10.922 4.82641,-8.982 8.6061,-23.861 -0.79483,-43.751 z M 152.11671,97.297 C 139.54168,91.964 131.9066,88.115 131.9066,79.636 c 0,-19.267 14.38918,-24.535 15.12137,-24.789 2.62463,-0.874 3.84494,-3.207 2.72644,-5.229 -1.12373,-2.034 -4.19212,-2.986 -6.84286,-2.123 -0.87575,0.284 -21.44608,7.249 -21.44608,32.141 0,13.806 14.19211,19.825 25.59643,24.66 11.85199,5.026 19.1164,8.494 19.1164,16.13 0,8.913 -6.46697,15.108 -13.0997,19.119 -8.06708,-11.944 -27.40274,-16.517 -45.78826,-16.517 -1.08719,0 -1.86897,0.02 -2.27095,0.033 -0.40329,-0.013 -1.18507,-0.033 -2.27095,-0.033 -18.359409,0 -37.666366,4.56 -45.75302,16.467 -6.641863,-4.031 -13.133634,-10.227 -13.133634,-19.069 0,-7.636 7.264415,-11.104 19.116401,-16.13 11.403017,-4.835 25.595124,-10.854 25.595124,-24.66 0,-24.893 -20.570331,-31.857 -21.446081,-32.141 -2.655962,-0.862 -5.719128,0.088 -6.842854,2.123 -1.125032,2.034 0.114852,4.382 2.769509,5.244 0.150091,0.049 15.078296,5.123 15.078296,24.775 0,8.479 -7.636382,12.328 -20.210111,17.661 -11.485241,4.87 -24.501413,10.39 -24.501413,23.129 0,13.519 10.702157,22.137 20.16965,27.121 -0.335421,1.62 -0.527277,3.323 -0.527277,5.132 0,25.306 27.173041,37.819 36.832391,41.467 v 11.892 c 0,2.209 2.3375,4 5.22056,4 h 19.809429 c 2.88306,0 5.22056,-1.791 5.22056,-4 v -11.892 c 9.65935,-3.648 36.8337,-16.161 36.8337,-41.467 0,-1.809 -0.19186,-3.513 -0.52728,-5.132 9.46749,-4.984 20.16965,-13.602 20.16965,-27.121 -0.003,-12.74 -13.01878,-18.26 -24.50533,-23.13 z"/>
</svg>