<svg id="$Autodesk Maya" viewBox="0 0 44 42.165001" xmlns="http://www.w3.org/2000/svg">
	<path d="m.0071916 1.889c-.005.043-.008.088-.007.133v37.21l8.696-18.992zm.924 40.113c.295.044 1.219.163 2.517.163 2.336 0 5.87-.388 9.0670004-2.307.318-.19.505-.542.483-.913l-.605-10.899-2.5790004-5.446zm12.9850004-41.401c-.172-.392-.568-.639-.999-.596l-11.1510004.929 15.5090004 32.754c.187.196.447.313.725.313h9c.088 0 .175-.013.258-.035.023-.006.043-.018.066-.026.008-.003.015-.007.023-.01l.346-.707-12.694-30.146zm29.306.445c-.062-.014-.121-.034-.182-.037-.014-.001-.026-.008-.04-.008h-13c-.402 0-.766.241-.922.612l-6.262 14.873 6.043 14.353 14.554-29.74c-.06-.026-.126-.038-.191-.053zm-12.222 29.969v7.986c0 .334.167.646.445.832l2.429 1.619c1.758-6.909 5.827-23.042 7.923-32.5zm4.799 10.986h7.201c.553 0 1-.447 1-1v-32.753c-2.032 9.38-6.372 26.573-8.201 33.753z"/>
</svg>