<svg id="$Desktop" viewBox="0 0 512 512" xmlns="http://www.w3.org/2000/svg">
	<path d="M256 224A32 32 0 1 0 256 288 32 32 0 1 0 256 224z"/>
	<path d="m256 0c-141.383 0-256 114.617-256 256s114.617 256 256 256 256-114.617 256-256-114.617-256-256-256zm187.852 167.281-59.492 23.797c-13.867-27.305-36.133-49.57-63.438-63.437l23.797-59.492c43.422 20.597 78.531 55.71 99.133 99.132zm-256.922 46.442c5.969-11.352 15.445-20.828 26.797-26.797 75.438-39.684 151.031 35.918 111.344 111.352-5.969 11.348-15.445 20.824-26.797 26.797-75.438 39.683-151.032-35.919-111.344-111.352zm-118.782 130.996 59.492-23.797c13.867 27.305 36.133 49.57 63.437 63.438l-23.797 59.492c-43.421-20.598-78.538-55.711-99.132-99.133z"/>
</svg>