<svg id="$Training" viewBox="0 0 16 15.403" xmlns="http://www.w3.org/2000/svg">
	<path d="m14.120416 10.163084 1.715.858c.22.11.22.424 0 .534l-7.568 3.785a.598.598 0 01-.534 0l-7.568-3.785a.299.299 0 010-.534l1.716-.858 5.317 2.659c.505.252 1.1.252 1.604 0l5.317-2.66zm-6.387-10.1a.598.598 0 01.534 0l7.568 3.784a.3.3 0 010 .535l-7.568 3.783a.598.598 0 01-.534 0l-7.568-3.783a.299.299 0 010-.535z"/>
	<path d="m14.120416 6.576084 1.715.858c.22.11.22.424 0 .534l-7.568 3.784a.598.598 0 01-.534 0l-7.568-3.784a.299.299 0 010-.534l1.716-.858 5.317 2.659c.505.252 1.1.252 1.604 0l5.317-2.659z"/>
</svg>