<svg viewBox="0 0 64 64" xmlns="http://www.w3.org/2000/svg">
	<g transform="translate(0 -1058.5197)">
		<path d="m6 1058.5197h52c3.324 0 6 2.676 6 6v52c0 3.324-2.676 6-6 6h-52c-3.324 0-6-2.676-6-6v-52c0-3.324 2.676-6 6-6z" fill="#202020"/>
		<g fill="#00e000" transform="matrix(.875 0 0 .875 4.143555 1062.3176)">
			<path d="m11.396484 9.7212157q0 3.9160153-1.230468 5.7519533-1.2207035 1.826172-3.7988285 1.826172-2.6171875 0-3.828125-1.855469-1.2011719-1.855469-1.2011719-5.703125 0-3.8769532 1.2207032-5.7226563 1.2207031-1.8554687 3.8085937-1.8554687 2.6171875 0 3.8183595 1.8847656 1.210937 1.875 1.210937 5.6738281zm-2.568359 4.4335933q.3417969-.791015.4589844-1.855468.1269531-1.074219.1269531-2.5781253 0-1.484375-.1269531-2.578125-.1171875-1.09375-.46875-1.8554687-.3417969-.7519532-.9375-1.1328125-.5859375-.3808594-1.5136719-.3808594-.9179688 0-1.5234375.3808594-.5957031.3808593-.9472656 1.1523437-.3320313.7226563-.4589844 1.8847656-.1171875 1.1621094-.1171875 2.5488282 0 1.523437.1074219 2.548828.1074219 1.025391.4589844 1.835938.3222656.761718.9082031 1.162109.5957031.400391 1.5722656.400391.9179687 0 1.5234375-.38086.6054688-.380859.9375-1.152344z"/>
			<path d="m23.320312 16.996606h-7.871093v-1.484375h3.027343v-9.7460934h-3.027343v-1.328125q.615234 0 1.318359-.097656.703125-.1074218 1.064453-.3027343.449219-.2441407.703125-.6152344.263672-.3808594.302735-1.015625h1.513671v13.1054681h2.96875z"/>
			<path d="m36.865234 9.7212157q0 3.9160153-1.230468 5.7519533-1.220704 1.826172-3.798829 1.826172-2.617187 0-3.828125-1.855469-1.201171-1.855469-1.201171-5.703125 0-3.8769532 1.220703-5.7226563 1.220703-1.8554687 3.808593-1.8554687 2.617188 0 3.81836 1.8847656 1.210937 1.875 1.210937 5.6738281zm-2.568359 4.4335933q.341797-.791015.458984-1.855468.126953-1.074219.126953-2.5781253 0-1.484375-.126953-2.578125-.117187-1.09375-.46875-1.8554687-.341797-.7519532-.9375-1.1328125-.585937-.3808594-1.513672-.3808594-.917968 0-1.523437.3808594-.595703.3808593-.947266 1.1523437-.332031.7226563-.458984 1.8847656-.117188 1.1621094-.117188 2.5488282 0 1.523437.107422 2.548828.107422 1.025391.458985 1.835938.322265.761718.908203 1.162109.595703.400391 1.572265.400391.917969 0 1.523438-.38086.605469-.380859.9375-1.152344z"/>
			<path d="m48.789062 16.996606h-7.871093v-1.484375h3.027343v-9.7460934h-3.027343v-1.328125q.615234 0 1.318359-.097656.703125-.1074221 1.064453-.3027346.449219-.2441407.703125-.6152344.263672-.3808594.302735-1.015625h1.513671v13.1054684h2.96875z"/>
			<path d="m62.333984 9.7212157q0 3.9160153-1.230468 5.7519533-1.220704 1.826172-3.798829 1.826172-2.617187 0-3.828125-1.855469-1.201171-1.855469-1.201171-5.703125 0-3.8769532 1.220703-5.7226563 1.220703-1.8554687 3.808593-1.8554687 2.617188 0 3.81836 1.8847656 1.210937 1.875 1.210937 5.6738281zm-2.568359 4.4335933q.341797-.791015.458984-1.855468.126953-1.074219.126953-2.5781253 0-1.484375-.126953-2.578125-.117187-1.09375-.46875-1.8554687-.341797-.7519532-.9375-1.1328125-.585937-.3808594-1.513672-.3808594-.917968 0-1.523437.3808594-.595703.3808593-.947266 1.1523437-.332031.7226563-.458984 1.8847656-.117188 1.1621094-.117188 2.5488282 0 1.523437.107422 2.548828.107422 1.025391.458985 1.835938.322265.761718.908203 1.162109.595703.400391 1.572265.400391.917969 0 1.523438-.38086.605469-.380859.9375-1.152344z"/>
			<path d="m10.585938 39.496606h-7.8710942v-1.484375h3.0273437v-9.746093h-3.0273437v-1.328125q.6152343 0 1.3183593-.09766.703125-.107422 1.0644531-.302734.4492188-.244141.703125-.615234.2636719-.38086.3027344-1.015625h1.5136719v13.105468h2.9687505z"/>
			<path d="m23.320312 39.496606h-7.871093v-1.484375h3.027343v-9.746093h-3.027343v-1.328125q.615234 0 1.318359-.09766.703125-.107422 1.064453-.302734.449219-.244141.703125-.615234.263672-.38086.302735-1.015625h1.513671v13.105468h2.96875z"/>
			<path d="m36.054687 39.496606h-7.871093v-1.484375h3.027343v-9.746093h-3.027343v-1.328125q.615234 0 1.318359-.09766.703125-.107422 1.064453-.302734.449219-.244141.703125-.615234.263672-.38086.302735-1.015625h1.513671v13.105468h2.96875z"/>
			<path d="m49.599609 32.221216q0 3.916015-1.230468 5.751953-1.220704 1.826172-3.798829 1.826172-2.617187 0-3.828125-1.855469-1.201171-1.855469-1.201171-5.703125 0-3.876953 1.220703-5.722656 1.220703-1.855469 3.808593-1.855469 2.617188 0 3.81836 1.884766 1.210937 1.875 1.210937 5.673828zm-2.568359 4.433593q.341797-.791015.458984-1.855468.126953-1.074219.126953-2.578125 0-1.484375-.126953-2.578125-.117187-1.09375-.46875-1.855469-.341797-.751953-.9375-1.132813-.585937-.380859-1.513672-.380859-.917968 0-1.523437.380859-.595703.38086-.947266 1.152344-.332031.722656-.458984 1.884766-.117188 1.162109-.117188 2.548828 0 1.523437.107422 2.548828.107422 1.025391.458985 1.835938.322265.761718.908203 1.162109.595703.400391 1.572265.400391.917969 0 1.523438-.38086.605469-.380859.9375-1.152344z"/>
			<path d="m61.523437 39.496606h-7.871093v-1.484375h3.027343v-9.746093h-3.027343v-1.328125q.615234 0 1.318359-.09766.703125-.107422 1.064453-.302734.449219-.244141.703125-.615234.263672-.38086.302735-1.015625h1.513671v13.105468h2.96875z"/>
			<path d="m10.585938 61.996606h-7.8710942v-1.484375h3.0273437v-9.746093h-3.0273437v-1.328125q.6152343 0 1.3183593-.09766.703125-.107422 1.0644531-.302734.4492188-.244141.703125-.615234.2636719-.38086.3027344-1.015625h1.5136719v13.105468h2.9687505z"/>
			<path d="m24.130859 54.721216q0 3.916015-1.230468 5.751953-1.220704 1.826172-3.798829 1.826172-2.617187 0-3.828124-1.855469-1.201172-1.855469-1.201172-5.703125 0-3.876953 1.220703-5.722656 1.220703-1.855469 3.808593-1.855469 2.617188 0 3.81836 1.884766 1.210937 1.875 1.210937 5.673828zm-2.568359 4.433593q.341797-.791015.458984-1.855468.126953-1.074219.126953-2.578125 0-1.484375-.126953-2.578125-.117187-1.09375-.46875-1.855469-.341797-.751953-.9375-1.132813-.585937-.380859-1.513672-.380859-.917968 0-1.523437.380859-.595703.38086-.947266 1.152344-.332031.722656-.458984 1.884766-.117188 1.162109-.117188 2.548828 0 1.523437.107422 2.548828.107422 1.025391.458985 1.835938.322265.761718.908203 1.162109.595703.400391 1.572265.400391.917969 0 1.523438-.38086.605469-.380859.9375-1.152344z"/>
			<path d="m36.054687 61.996606h-7.871093v-1.484375h3.027343v-9.746093h-3.027343v-1.328125q.615234 0 1.318359-.09766.703125-.107422 1.064453-.302734.449219-.244141.703125-.615234.263672-.38086.302735-1.015625h1.513671v13.105468h2.96875z"/>
			<path d="m49.599609 54.721216q0 3.916015-1.230468 5.751953-1.220704 1.826172-3.798829 1.826172-2.617187 0-3.828125-1.855469-1.201171-1.855469-1.201171-5.703125 0-3.876953 1.220703-5.722656 1.220703-1.855469 3.808593-1.855469 2.617188 0 3.81836 1.884766 1.210937 1.875 1.210937 5.673828zm-2.568359 4.433593q.341797-.791015.458984-1.855468.126953-1.074219.126953-2.578125 0-1.484375-.126953-2.578125-.117187-1.09375-.46875-1.855469-.341797-.751953-.9375-1.132813-.585937-.380859-1.513672-.380859-.917968 0-1.523437.380859-.595703.38086-.947266 1.152344-.332031.722656-.458984 1.884766-.117188 1.162109-.117188 2.548828 0 1.523437.107422 2.548828.107422 1.025391.458985 1.835938.322265.761718.908203 1.162109.595703.400391 1.572265.400391.917969 0 1.523438-.38086.605469-.380859.9375-1.152344z"/>
			<path d="m62.333984 54.721216q0 3.916015-1.230468 5.751953-1.220704 1.826172-3.798829 1.826172-2.617187 0-3.828125-1.855469-1.201171-1.855469-1.201171-5.703125 0-3.876953 1.220703-5.722656 1.220703-1.855469 3.808593-1.855469 2.617188 0 3.81836 1.884766 1.210937 1.875 1.210937 5.673828zm-2.568359 4.433593q.341797-.791015.458984-1.855468.126953-1.074219.126953-2.578125 0-1.484375-.126953-2.578125-.117187-1.09375-.46875-1.855469-.341797-.751953-.9375-1.132813-.585937-.380859-1.513672-.380859-.917968 0-1.523437.380859-.595703.38086-.947266 1.152344-.332031.722656-.458984 1.884766-.117188 1.162109-.117188 2.548828 0 1.523437.107422 2.548828.107422 1.025391.458985 1.835938.322265.761718.908203 1.162109.595703.400391 1.572265.400391.917969 0 1.523438-.38086.605469-.380859.9375-1.152344z"/>
		</g>
	</g>
</svg>