<svg id="$About" viewBox="0 0 416.979 416.979" xmlns="http://www.w3.org/2000/svg">
	<path d="m356.003915 61.15546c-81.37-81.47-213.377-81.551-294.848-.182-81.47 81.371-81.552 213.379-.181 294.85 81.369 81.47 213.378 81.551 294.849.181 81.469-81.369 81.551-213.379.18-294.849zm-118.404 279.63c0 3.217-2.607 5.822-5.822 5.822h-46.576c-3.215 0-5.822-2.605-5.822-5.822v-172.901c0-3.217 2.607-5.822 5.822-5.822h46.576c3.215 0 5.822 2.604 5.822 5.822zm-29.11-202.885c-18.618 0-33.766-15.146-33.766-33.765 0-18.617 15.147-33.766 33.766-33.766s33.766 15.148 33.766 33.766c0 18.619-15.149 33.765-33.766 33.765z"/>
</svg>