<svg id="$Document" viewBox="0 0 497.25 610.633" xmlns="http://www.w3.org/2000/svg">
	<path d="m361.597 610.633004 135.653-137.289h-135.653z"/>
	<path d="m497.25 38.164004c0-21.095-17.069-38.164-38.164-38.164h-420.922c-21.075 0-38.164 17.069-38.164 38.164v534.305c0 21.095 17.088 38.164 38.164 38.164h284.613v-161.238c0-10.548 8.534-19.082 19.082-19.082h155.391zm-439.875 57.461h191.25v43.031h-191.25zm0 119.531h191.25v43.031h-191.25zm191.25 282.094h-191.25v-43.031h191.25zm181.688-119.531h-372.938v-43.031h372.938zm0-119.531h-119.531v-162.563h119.531z"/>
</svg>