<svg id="$Software" viewBox="0 0 490 490" xmlns="http://www.w3.org/2000/svg">
	<path d="m46.3 46.7v255.9h397.4v-255.9zm129.5 89.8h-.4c0 1.9-1.2 3.5-2.7 4.3l-54.8 24.9 54.8 25.3c1.6.8 2.7 2.3 2.7 4.3v20.4c0 3.3-3.4 5.4-6.3 4.1l-82.7-38.1c-1.6-.8-2.7-2.3-2.7-4.3v-22.2c0-1.9 1.2-3.5 2.7-4.3l82.5-38.4c3.2-1.5 6.9.9 6.9 4.4zm111.1-41.4-76.1 163.1c-.8 1.6-2.3 2.7-4.3 2.7h-17.2c-3.6 0-5.9-3.7-4.4-6.9l76-163c.8-1.6 2.3-2.7 4.3-2.7h17.3c3.5 0 5.9 3.6 4.4 6.8zm28.1 120.2v-20.4c0-1.9 1.2-3.5 2.7-4.3l54.8-25.3-54.8-24.9c-1.6-.8-2.7-2.3-2.7-4.3v-20c0-3.5 3.7-5.9 6.8-4.4l82.6 38.4c1.6.8 2.7 2.3 2.7 4.3v21.5c0 2.4-1.4 4.5-3.5 5.5l-82.3 37.9c-2.9 1.3-6.3-.8-6.3-4z"/>
	<path d="m159.1 435.6h171.8l-28.3-66.9h-115.2z"/>
	<path d="m0 0v349.2h490v-349.2zm463.2 312.3c0 5.4-4.3 9.7-9.7 9.7h-416.9c-5.4 0-9.7-4.3-9.7-9.7v-275.4c0-5.4 4.3-9.7 9.7-9.7h416.9c5.4 0 9.7 4.3 9.7 9.7z"/>
	<path d="m103.4 455h282.7v35h-282.7z"/>
</svg>