<svg id="$Error" viewBox="0 0 363 371.06201" xmlns="http://www.w3.org/2000/svg">
	<path d="m60.21094-.0005c-3.04313 1.950645-6.036003 3.973598-8.976565 6.064453 2.940562-2.090855 5.933435-4.113808 8.976565-6.064453zm242.57812 0c3.04313 1.950645 6.036 3.973598 8.97656 6.064453-2.94056-2.090855-5.93343-4.113808-8.97656-6.064453zm-121.28906 8.0625c-100.1 0-181.5 81.4-181.5 181.5s81.4 181.5 181.5 181.5 181.5-81.4 181.5-181.5-81.4-181.5-181.5-181.5zm108.72266 83.53125c3.15039-.0195 6.25195 1.26953 8.37695 3.76953 3.5 4 3.59961 9.99922.0996 13.69922l-30.5 36.59961 30.5 36.59961c3.4 4.1 3.30039 10.00156-.0996 14.10156-3.2 3.8-9.00039 5.19883-13.90039 2.29883l-72.59961-43.5c-3.3-2-5.29883-5.49883-5.29883-9.29883s1.99883-7.30078 5.29883-9.30078l72.59961-43.5c1.725-.975 3.6332-1.45703 5.52344-1.46875zm-217.47461.1543c1.88086.009 3.76367.50117 5.45117 1.51367l72.60156 43.5c3.3 2 5.29883 5.50078 5.29883 9.30078s-1.99922 7.30039-5.19922 9.40039l-72.59961 43.5c-4.9 2.9-10.70039 1.39922-13.90039-2.30078-3.5-4.1-3.49961-9.99961-.09961-14.09961l30.39844-36.30078-30.5-36.59961c-3.4-4.1-3.29844-9.99961.10156-14.09961 2.1875-2.5 5.3125-3.8291 8.44727-3.81445zm108.75195 112.31445c41.2 0 91.50078 34.79961 97.80078 84.59961 1.3 10.8-6.40156 19.60117-14.10156 16.20117-20.6-8.8-51.09922-13.80078-83.69922-13.80078s-63.09922 5.00078-83.69922 13.80078c-7.8 3.4-15.50156-5.50117-14.10156-16.20117 6.3-49.9 56.60078-84.59961 97.80078-84.59961z"/>
</svg>