<svg id="$Main" viewBox="0 0 330.242 316.30899" xmlns="http://www.w3.org/2000/svg">
	<path d="m324.44206 122.845-41.321-33.677004v-53.858996c0-6.065-4.935-11-11-11h-26c-6.065 0-11 4.935-11 11v14.737l-55.213-44.9990004c-3.994-3.254-9.258-5.04699999-14.822-5.04699999-5.542 0-10.781 1.78199999-14.753 5.01899999l-144.5329964 117.8250004c-6.56700002 5.351-6.17300002 10.012-5.35400002 12.314.81700002 2.297 3.44800002 6.151 11.88400042 6.151h19.791v154.947c0 11.058 8.972 20.053 20 20.053h62.499996c10.935 0 19.5-8.809 19.5-20.053v-63.541c0-5.446 5.005-10.405 10.5-10.405h42c5.238 0 9.5 4.668 9.5 10.405v63.541c0 10.87 9.388 20.053 20.5 20.053h61.5c11.028 0 20-8.996 20-20.053v-154.947h19.791c8.436 0 11.066-3.854 11.884-6.151.819-2.302 1.213-6.963-5.354-12.313z"/>
</svg>